<?xml version="1.0" encoding="iso-8859-1"?>
<!-- Generator: Adobe Illustrator 19.0.0, SVG Export Plug-In . SVG Version: 6.00 Build 0)  -->
<svg version="1.1" id="Capa_1" xmlns="http://www.w3.org/2000/svg" xmlns:xlink="http://www.w3.org/1999/xlink" x="0px" y="0px"
	 viewBox="0 0 512 512" style="enable-background:new 0 0 512 512;" xml:space="preserve">
<g>
	<g>
		<path d="M498.701,13.299c-13.856-13.855-36.452-16.901-67.166-9.057c-24.449,6.246-53.993,19.186-87.813,38.464
			c-64.315,36.66-135.742,91.576-191.069,146.903c-52.958,52.958-85.159,100.776-95.709,142.128
			c-8.406,32.95-3.251,62.704,14.854,86.946l-67.33,67.283c-5.956,5.953-5.959,15.608-0.007,21.565
			c2.979,2.98,6.882,4.469,10.786,4.469c3.901,0,7.802-1.487,10.78-4.463l67.34-67.295c16.658,12.424,35.916,18.742,57.026,18.742
			c9.597,0,19.579-1.303,29.869-3.929c41.352-10.55,89.17-42.751,142.128-95.709c55.327-55.327,110.243-126.753,146.903-191.069
			c19.278-33.82,32.219-63.364,38.464-87.813C515.604,49.754,512.556,27.155,498.701,13.299z M296.911,108.695
			c10.659-7.479,21.327-14.629,31.904-21.364v74.511h-0.001l-31.979,31.957L296.911,108.695z M86.494,339.276
			c9.177-35.972,38.693-79.071,87.724-128.103c27.622-27.622,59.378-55.121,92.176-80.138l-0.083,93.268L93.675,396.821
			C83.118,380.669,80.772,361.707,86.494,339.276z M300.827,337.783c-49.031,49.03-92.131,78.546-128.103,87.724
			c-22.396,5.712-41.334,3.382-57.471-7.134l172.605-172.489l92.825,0.095C355.742,278.644,328.345,310.264,300.827,337.783z
			 M403.015,215.503l-84.672-0.085l32.031-32.008h74.153C417.747,194.05,410.547,204.781,403.015,215.503z M442.949,152.913H359.31
			V68.926c52.256-29.725,84.493-38.381,102.149-38.381c8.158,0,13.208,1.848,15.678,4.318
			C484.959,42.687,486.542,76.351,442.949,152.913z"/>
	</g>
</g>
<g>
</g>
<g>
</g>
<g>
</g>
<g>
</g>
<g>
</g>
<g>
</g>
<g>
</g>
<g>
</g>
<g>
</g>
<g>
</g>
<g>
</g>
<g>
</g>
<g>
</g>
<g>
</g>
<g>
</g>
</svg>
