<?xml version="1.0" encoding="iso-8859-1"?>
<!-- Generator: Adobe Illustrator 19.0.0, SVG Export Plug-In . SVG Version: 6.00 Build 0)  -->
<svg version="1.1" id="Layer_1" xmlns="http://www.w3.org/2000/svg" xmlns:xlink="http://www.w3.org/1999/xlink" x="0px" y="0px"
	 viewBox="0 0 512.001 512.001" style="enable-background:new 0 0 512.001 512.001;" xml:space="preserve">
<g>
	<g>
		<path d="M497.178,14.88c-36.878-36.875-122.227,3.102-169.821,30.216c-3.185,1.815-5.314,5.042-5.731,8.685l-4.076,35.705
			l-10.792-18.089c-1.606-2.692-4.242-4.612-7.299-5.314c-3.058-0.704-6.266-0.126-8.886,1.597
			c-42.419,27.871-84.402,61.842-118.216,95.656c-6.198,6.198-12.285,12.555-18.091,18.896c-1.728,1.886-2.776,4.294-2.981,6.843
			l-5.752,71.601l-8.412-53.621c-0.863-5.508-5.553-9.6-11.127-9.711c-5.562-0.132-10.422,3.79-11.507,9.26l-24.137,121.83
			l-6.675-36.281c-1.01-5.487-5.81-9.462-11.393-9.415c-5.58,0.043-10.322,4.084-11.248,9.586L32.2,463.602L3.424,492.376
			c-4.489,4.489-4.489,11.768,0,16.258c2.245,2.244,5.187,3.367,8.128,3.367s5.883-1.123,8.129-3.367l28.776-28.776l171.276-28.833
			c5.502-0.927,9.545-5.67,9.587-11.25c0.041-5.579-3.928-10.383-9.415-11.393l-36.281-6.675l121.83-24.137
			c5.468-1.084,9.37-5.934,9.26-11.506c-0.112-5.573-4.205-10.263-9.711-11.128l-53.621-8.412l71.602-5.752
			c2.549-0.205,4.957-1.253,6.842-2.98c6.339-5.803,12.697-11.89,18.898-18.092c16.849-16.849,33.6-35.527,49.792-55.513
			c2.297-2.835,3.111-6.593,2.193-10.125c-0.916-3.531-3.456-6.418-6.842-7.779l-16.715-6.712l44.483-10.225
			c2.744-0.631,5.16-2.246,6.792-4.541c16.717-23.5,31.515-47.013,43.984-69.888c0.067-0.122,0.13-0.245,0.193-0.369l16.557-33.181
			c0.069-0.138,0.133-0.277,0.198-0.416C516.537,80.536,519.24,36.942,497.178,14.88z M124.452,274.623l13.118,83.61l-35.25,35.25
			l-0.683-3.711L124.452,274.623z M72.873,360.492l5.752,31.266c0.001,0.006,0.001,0.01,0.002,0.015l3.948,21.453l-22.342,22.342
			L72.873,360.492z M76.492,451.824l22.341-22.34l21.454,3.948c0.001,0,0.002,0,0.003,0l31.275,5.754L76.492,451.824z
			 M122.287,410.422l-3.711-0.683l35.25-35.25l83.611,13.118L122.287,410.422z M468.488,131.308l-16.359,32.785
			c-11.385,20.868-24.804,42.322-39.918,63.828l-75.928,17.454c-4.896,1.125-8.494,5.299-8.885,10.308
			c-0.391,5.007,2.515,9.691,7.177,11.563l36.12,14.506c-12.549,14.849-25.364,28.829-38.226,41.691
			c-5.021,5.021-10.148,9.963-15.279,14.729l-138.142,11.098l228.862-228.861c4.489-4.489,4.489-11.768,0-16.258
			c-4.49-4.489-11.767-4.489-16.258,0l-228.862,228.86l11.098-138.141c4.767-5.133,9.709-10.26,14.729-15.28
			c30.091-30.091,66.894-60.331,104.6-86.019l22.023,36.916c2.527,4.235,7.471,6.388,12.292,5.348
			c4.82-1.038,8.442-5.035,9.001-9.934l7.27-63.681c65.843-36.618,119.355-48.846,137.116-31.084
			C494.992,45.209,490.344,82.644,468.488,131.308z"/>
	</g>
</g>
<g>
	<g>
		<path d="M434.868,86.215c-0.152-0.736-0.369-1.448-0.656-2.15c-0.287-0.69-0.645-1.357-1.058-1.977
			c-0.425-0.632-0.897-1.219-1.425-1.747c-0.54-0.529-1.127-1.012-1.759-1.437c-0.621-0.414-1.287-0.77-1.977-1.058
			c-0.69-0.287-1.414-0.506-2.15-0.655c-1.483-0.299-3.012-0.299-4.495,0c-0.736,0.149-1.46,0.368-2.15,0.655
			c-0.69,0.287-1.367,0.644-1.988,1.058c-0.621,0.425-1.22,0.908-1.748,1.437c-0.529,0.529-1.012,1.115-1.424,1.747
			c-0.414,0.621-0.77,1.288-1.058,1.977c-0.287,0.701-0.506,1.414-0.655,2.15c-0.149,0.747-0.23,1.506-0.23,2.253
			c0,3.023,1.23,5.989,3.368,8.127c0.529,0.529,1.127,1.012,1.748,1.425c0.622,0.414,1.299,0.77,1.988,1.058
			c0.691,0.287,1.414,0.506,2.15,0.655c0.737,0.149,1.494,0.23,2.242,0.23c0.759,0,1.506-0.08,2.253-0.23
			c0.736-0.149,1.461-0.368,2.15-0.655s1.356-0.644,1.977-1.058c0.632-0.414,1.22-0.897,1.759-1.425
			c2.138-2.138,3.357-5.104,3.357-8.127C435.086,87.721,435.017,86.962,434.868,86.215z"/>
	</g>
</g>
<g>
</g>
<g>
</g>
<g>
</g>
<g>
</g>
<g>
</g>
<g>
</g>
<g>
</g>
<g>
</g>
<g>
</g>
<g>
</g>
<g>
</g>
<g>
</g>
<g>
</g>
<g>
</g>
<g>
</g>
</svg>
